<svg width="524" height="424" viewBox="0 0 524 424" fill="none" xmlns="http://www.w3.org/2000/svg">
<g clip-path="url(#clip0_746_46)">
<path d="M67.6128 170.687C67.6128 166.269 71.1948 162.687 75.6128 162.687H155.124C159.542 162.687 163.124 166.269 163.124 170.687C163.124 175.105 159.542 178.687 155.124 178.687H75.6128C71.1948 178.687 67.6128 175.105 67.6128 170.687ZM75.6128 235.387H171.433C175.851 235.387 179.433 231.805 179.433 227.387C179.433 222.969 175.851 219.387 171.433 219.387H75.6128C71.1948 219.387 67.6128 222.969 67.6128 227.387C67.6128 231.805 71.1948 235.387 75.6128 235.387ZM67.6128 284.087C67.6128 288.505 71.1948 292.087 75.6128 292.087H279.197C283.615 292.087 287.197 288.505 287.197 284.087C287.197 279.669 283.615 276.087 279.197 276.087H75.6128C71.1948 276.087 67.6128 279.668 67.6128 284.087ZM518.001 60.7083V180.955C518.001 208.252 497.805 230.92 471.569 234.8V303.169C471.569 306.238 469.813 309.037 467.049 310.372C465.943 310.907 464.753 311.169 463.57 311.169C461.798 311.169 460.04 310.581 458.597 309.437L365.24 235.387H348.808V287.511C348.808 317.525 324.39 341.943 294.376 341.943H158.763L65.4058 415.993C63.9638 417.137 62.2058 417.725 60.4328 417.725C59.2488 417.725 58.0599 417.463 56.9539 416.928C54.1899 415.593 52.4339 412.794 52.4339 409.725V341.356C26.1989 337.476 6.00195 314.808 6.00195 287.511V167.264C6.00195 137.25 30.4199 112.832 60.4338 112.832H175.195V60.7083C175.195 30.6943 199.613 6.27637 229.627 6.27637H463.57C493.583 6.27737 518.001 30.6953 518.001 60.7083ZM332.808 235.387H229.626C199.612 235.387 175.194 210.97 175.194 180.956V128.832H60.4328C39.2419 128.832 22.0009 146.072 22.0009 167.264V287.51C22.0009 308.701 39.2409 325.942 60.4328 325.942C64.8508 325.942 68.4328 329.524 68.4328 333.942V393.168L151.003 327.674C152.417 326.552 154.17 325.942 155.975 325.942H294.376C315.567 325.942 332.808 308.702 332.808 287.51V235.387ZM502.001 60.7083C502.001 39.5173 484.761 22.2763 463.569 22.2763H229.626C208.435 22.2763 191.194 39.5163 191.194 60.7083V180.955C191.194 202.146 208.434 219.386 229.626 219.386H368.027C369.832 219.386 371.585 219.996 372.999 221.118L455.569 286.612V227.386C455.569 222.968 459.151 219.386 463.569 219.386C484.76 219.386 502.001 202.146 502.001 180.955V60.7083ZM448.389 56.1323H244.805C240.387 56.1323 236.805 59.7143 236.805 64.1323C236.805 68.5502 240.387 72.1322 244.805 72.1322H448.39C452.808 72.1322 456.39 68.5502 456.39 64.1323C456.39 59.7143 452.807 56.1323 448.389 56.1323ZM448.389 112.832H244.805C240.387 112.832 236.805 116.414 236.805 120.832C236.805 125.25 240.387 128.832 244.805 128.832H448.39C452.808 128.832 456.39 125.25 456.39 120.832C456.39 116.414 452.807 112.832 448.389 112.832ZM448.389 169.532H244.805C240.387 169.532 236.805 173.114 236.805 177.532C236.805 181.95 240.387 185.532 244.805 185.532H448.39C452.808 185.532 456.39 181.95 456.39 177.532C456.39 173.114 452.807 169.532 448.389 169.532Z" fill="#002B5A"/>
<path fill-rule="evenodd" clip-rule="evenodd" d="M458.597 309.437L365.24 235.387H348.808V287.511C348.808 317.525 324.39 341.943 294.376 341.943H158.763L65.4058 415.993C63.9638 417.137 62.2058 417.725 60.4328 417.725C59.2488 417.725 58.0599 417.463 56.9539 416.928C54.1899 415.593 52.4339 412.794 52.4339 409.725V341.356C26.1989 337.476 6.00195 314.808 6.00195 287.511V167.264C6.00195 137.25 30.4199 112.832 60.4338 112.832H175.195V60.7083C175.195 30.6943 199.613 6.27637 229.627 6.27637H463.57C493.583 6.27737 518.001 30.6953 518.001 60.7083V180.955C518.001 208.252 497.805 230.92 471.569 234.8V303.169C471.569 306.238 469.813 309.037 467.049 310.372C465.943 310.907 464.753 311.169 463.57 311.169C461.798 311.169 460.04 310.581 458.597 309.437ZM469.662 315.773C467.725 316.71 465.64 317.169 463.57 317.169C460.472 317.169 457.395 316.14 454.87 314.138L454.868 314.138L363.15 241.387H354.808V287.511C354.808 320.838 327.704 347.943 294.376 347.943H160.853L69.1349 420.693C66.6096 422.696 63.5308 423.725 60.4328 423.725C58.3619 423.725 56.2778 423.266 54.3411 422.329C49.5055 419.992 46.4339 415.094 46.4339 409.725V346.305C19.8379 339.973 0.00195312 316.027 0.00195312 287.511V167.264C0.00195312 133.936 27.1062 106.832 60.4338 106.832H169.195V60.7083C169.195 27.3806 196.299 0.276367 229.627 0.276367H463.57C496.897 0.277478 524.001 27.3816 524.001 60.7083V180.955C524.001 209.471 504.166 233.417 477.569 239.749V303.169C477.569 308.538 474.497 313.436 469.662 315.773ZM61.6128 170.687C61.6128 162.955 67.8811 156.687 75.6128 156.687H155.124C162.855 156.687 169.124 162.955 169.124 170.687C169.124 178.419 162.855 184.687 155.124 184.687H75.6128C67.8811 184.687 61.6128 178.419 61.6128 170.687ZM171.433 241.387H75.6128C67.8811 241.387 61.6128 235.119 61.6128 227.387C61.6128 219.655 67.8811 213.387 75.6128 213.387H171.433C179.164 213.387 185.433 219.655 185.433 227.387C185.433 235.119 179.164 241.387 171.433 241.387ZM75.6128 298.087C67.8811 298.087 61.6128 291.819 61.6128 284.087C61.6128 276.354 67.8816 270.087 75.6128 270.087H279.197C286.929 270.087 293.197 276.355 293.197 284.087C293.197 291.819 286.929 298.087 279.197 298.087H75.6128ZM326.808 241.387H229.626C196.298 241.387 169.194 214.284 169.194 180.956V134.832H60.4328C42.5555 134.832 28.0009 149.386 28.0009 167.264V287.51C28.0009 305.387 42.5547 319.942 60.4328 319.942C68.1645 319.942 74.4328 326.21 74.4328 333.942V380.75L147.273 322.974C149.75 321.009 152.818 319.942 155.975 319.942H294.376C312.254 319.942 326.808 305.388 326.808 287.51V241.387ZM229.626 235.387C199.612 235.387 175.194 210.97 175.194 180.956V128.832H60.4328C39.2419 128.832 22.0009 146.072 22.0009 167.264V287.51C22.0009 308.701 39.2409 325.942 60.4328 325.942C64.8508 325.942 68.4328 329.524 68.4328 333.942V393.168L151.003 327.674C152.417 326.552 154.17 325.942 155.975 325.942H294.376C315.567 325.942 332.808 308.702 332.808 287.51V235.387H229.626ZM496.001 60.7083C496.001 42.8309 481.447 28.2763 463.569 28.2763H229.626C211.748 28.2763 197.194 42.8301 197.194 60.7083V180.955C197.194 198.832 211.747 213.386 229.626 213.386H368.027C371.184 213.386 374.251 214.452 376.728 216.417C376.728 216.417 376.728 216.418 376.729 216.418L449.569 274.194V227.386C449.569 219.654 455.837 213.386 463.569 213.386C481.447 213.386 496.001 198.832 496.001 180.955V60.7083ZM455.569 227.386C455.569 222.968 459.151 219.386 463.569 219.386C484.76 219.386 502.001 202.146 502.001 180.955V60.7083C502.001 39.5173 484.761 22.2763 463.569 22.2763H229.626C208.435 22.2763 191.194 39.5163 191.194 60.7083V180.955C191.194 202.146 208.434 219.386 229.626 219.386H368.027C369.832 219.386 371.585 219.996 372.999 221.118L455.569 286.612V227.386ZM244.805 50.1323H448.389C456.12 50.1323 462.39 56.3996 462.39 64.1323C462.39 71.864 456.122 78.1322 448.39 78.1322H244.805C237.074 78.1322 230.805 71.8639 230.805 64.1323C230.805 56.4005 237.074 50.1323 244.805 50.1323ZM244.805 106.832H448.389C456.12 106.832 462.39 113.099 462.39 120.832C462.39 128.564 456.122 134.832 448.39 134.832H244.805C237.074 134.832 230.805 128.564 230.805 120.832C230.805 113.1 237.074 106.832 244.805 106.832ZM244.805 163.532H448.389C456.12 163.532 462.39 169.799 462.39 177.532C462.39 185.264 456.122 191.532 448.39 191.532H244.805C237.074 191.532 230.805 185.264 230.805 177.532C230.805 169.8 237.074 163.532 244.805 163.532ZM75.6128 162.687C71.1948 162.687 67.6128 166.269 67.6128 170.687C67.6128 175.105 71.1948 178.687 75.6128 178.687H155.124C159.542 178.687 163.124 175.105 163.124 170.687C163.124 166.269 159.542 162.687 155.124 162.687H75.6128ZM171.433 235.387H75.6128C71.1948 235.387 67.6128 231.805 67.6128 227.387C67.6128 222.969 71.1948 219.387 75.6128 219.387H171.433C175.851 219.387 179.433 222.969 179.433 227.387C179.433 231.805 175.851 235.387 171.433 235.387ZM75.6128 292.087C71.1948 292.087 67.6128 288.505 67.6128 284.087C67.6128 279.668 71.1948 276.087 75.6128 276.087H279.197C283.615 276.087 287.197 279.669 287.197 284.087C287.197 288.505 283.615 292.087 279.197 292.087H75.6128ZM244.805 56.1323H448.389C452.807 56.1323 456.39 59.7143 456.39 64.1323C456.39 68.5502 452.808 72.1322 448.39 72.1322H244.805C240.387 72.1322 236.805 68.5502 236.805 64.1323C236.805 59.7143 240.387 56.1323 244.805 56.1323ZM244.805 112.832H448.389C452.807 112.832 456.39 116.414 456.39 120.832C456.39 125.25 452.808 128.832 448.39 128.832H244.805C240.387 128.832 236.805 125.25 236.805 120.832C236.805 116.414 240.387 112.832 244.805 112.832ZM244.805 169.532H448.389C452.807 169.532 456.39 173.114 456.39 177.532C456.39 181.95 452.808 185.532 448.39 185.532H244.805C240.387 185.532 236.805 181.95 236.805 177.532C236.805 173.114 240.387 169.532 244.805 169.532Z" fill="#002B5A"/>
</g>
<defs>
<clipPath id="clip0_746_46">
<rect width="524" height="424" fill="white"/>
</clipPath>
</defs>
</svg>
