<svg width="524" height="362" viewBox="0 0 524 362" fill="none" xmlns="http://www.w3.org/2000/svg">
<g clip-path="url(#clip0_746_40)">
<path d="M510.001 3.82812H14.0019C7.92709 3.82812 3.00195 8.75326 3.00195 14.8281V347.172C3.00195 353.247 7.92709 358.172 14.0019 358.172H510.001C516.076 358.172 521.001 353.247 521.001 347.172V14.8281C521.001 8.75328 516.076 3.82812 510.001 3.82812ZM291.137 199.313C275.1 213.957 248.899 213.955 232.864 199.313L42.886 25.8281H481.116L291.137 199.313ZM180.186 181L25.0019 322.711V39.2892L180.186 181ZM327.504 195.896L481.116 336.172H42.886L196.498 195.896L218.029 215.559C230.198 226.672 246.129 232.187 262.001 232.187C277.869 232.187 293.807 226.67 305.972 215.559C305.972 215.559 305.972 215.559 305.973 215.559L327.504 195.896ZM499.001 322.713L343.817 181L499.001 39.2883V322.713Z" fill="#002B5A" stroke="#002B5A" stroke-width="6"/>
</g>
<defs>
<clipPath id="clip0_746_40">
<rect width="524" height="362" fill="white"/>
</clipPath>
</defs>
</svg>
