<?xml version="1.0" encoding="UTF-8"?>
<!DOCTYPE svg PUBLIC "-//W3C//DTD SVG 1.1//EN" "http://www.w3.org/Graphics/SVG/1.1/DTD/svg11.dtd">
<!-- Creator: CorelDRAW 2021 (64-Bit) -->
<svg xmlns="http://www.w3.org/2000/svg" xml:space="preserve" width="175px" height="31px" version="1.1" style="shape-rendering:geometricPrecision; text-rendering:geometricPrecision; image-rendering:optimizeQuality; fill-rule:evenodd; clip-rule:evenodd"
viewBox="0 0 32.6 5.76"
 xmlns:xlink="http://www.w3.org/1999/xlink"
 xmlns:xodm="http://www.corel.com/coreldraw/odm/2003">
 <defs>
  <style type="text/css">
   <![CDATA[
    .fil1 {fill:#FF4E45}
    .fil0 {fill:#0D2B59;fill-rule:nonzero}
   ]]>
  </style>
 </defs>
 <g id="Слой_x0020_1">
  <metadata id="CorelCorpID_0Corel-Layer"/>
  <g id="_1048092784">
   <path class="fil0" d="M2.89 5.6c-0.55,0 -1.04,-0.12 -1.48,-0.34 -0.44,-0.24 -0.79,-0.56 -1.04,-0.97 -0.25,-0.41 -0.37,-0.89 -0.37,-1.41 0,-0.52 0.12,-0.99 0.37,-1.4 0.25,-0.42 0.6,-0.74 1.04,-0.97 0.44,-0.23 0.93,-0.35 1.48,-0.35 0.5,0 0.95,0.09 1.35,0.27 0.39,0.18 0.72,0.44 0.97,0.77l-1.1 0.99c-0.32,-0.41 -0.7,-0.61 -1.13,-0.61 -0.37,0 -0.66,0.12 -0.88,0.36 -0.23,0.23 -0.34,0.54 -0.34,0.94 0,0.4 0.11,0.71 0.34,0.95 0.22,0.23 0.51,0.35 0.88,0.35 0.43,0 0.81,-0.2 1.13,-0.61l1.1 0.99c-0.25,0.33 -0.58,0.59 -0.97,0.77 -0.4,0.18 -0.85,0.27 -1.35,0.27z"/>
   <path class="fil0" d="M8.12 5.6c-0.79,0 -1.41,-0.22 -1.85,-0.65 -0.45,-0.43 -0.67,-1.03 -0.67,-1.81l0 -2.86 1.75 0 0 2.81c0,0.38 0.06,0.66 0.2,0.83 0.14,0.17 0.33,0.26 0.59,0.26 0.26,0 0.45,-0.09 0.58,-0.26 0.14,-0.17 0.21,-0.45 0.21,-0.83l0 -2.81 1.72 0 0 2.86c0,0.78 -0.22,1.38 -0.67,1.81 -0.44,0.43 -1.06,0.65 -1.86,0.65z"/>
   <path class="fil0" d="M13.38 4.17l-0.48 0 0 1.31 -1.75 0 0 -5.2 2.5 0c0.48,0 0.9,0.08 1.25,0.24 0.36,0.16 0.63,0.39 0.82,0.68 0.2,0.3 0.29,0.65 0.29,1.04 0,0.37 -0.08,0.7 -0.25,0.97 -0.17,0.28 -0.41,0.5 -0.73,0.67l1.09 1.6 -1.86 0 -0.88 -1.31zm0.87 -1.93c0,-0.19 -0.06,-0.34 -0.18,-0.44 -0.12,-0.11 -0.29,-0.17 -0.53,-0.17l-0.64 0 0 1.22 0.64 0c0.24,0 0.41,-0.05 0.53,-0.16 0.12,-0.1 0.18,-0.26 0.18,-0.45z"/>
   <path class="fil0" d="M18.61 5.6c-0.43,0 -0.85,-0.05 -1.26,-0.14 -0.41,-0.1 -0.74,-0.23 -1,-0.4l0.56 -1.27c0.25,0.14 0.52,0.26 0.83,0.34 0.3,0.09 0.6,0.13 0.88,0.13 0.24,0 0.41,-0.02 0.52,-0.07 0.1,-0.05 0.15,-0.12 0.15,-0.21 0,-0.11 -0.07,-0.19 -0.2,-0.25 -0.14,-0.05 -0.36,-0.11 -0.67,-0.17 -0.4,-0.09 -0.73,-0.18 -1,-0.27 -0.27,-0.1 -0.5,-0.26 -0.7,-0.48 -0.19,-0.22 -0.29,-0.52 -0.29,-0.89 0,-0.33 0.09,-0.63 0.27,-0.9 0.18,-0.26 0.46,-0.47 0.82,-0.63 0.36,-0.15 0.8,-0.23 1.32,-0.23 0.36,0 0.71,0.04 1.05,0.12 0.34,0.08 0.65,0.19 0.91,0.34l-0.53 1.27c-0.51,-0.26 -0.99,-0.39 -1.44,-0.39 -0.45,0 -0.68,0.11 -0.68,0.33 0,0.1 0.07,0.18 0.2,0.23 0.14,0.05 0.36,0.11 0.66,0.17 0.4,0.07 0.73,0.16 1,0.26 0.27,0.09 0.51,0.25 0.71,0.46 0.2,0.22 0.3,0.52 0.3,0.9 0,0.32 -0.09,0.62 -0.28,0.89 -0.18,0.26 -0.45,0.47 -0.82,0.63 -0.36,0.15 -0.8,0.23 -1.31,0.23z"/>
   <path class="fil0" d="M29.85 4.17l-0.47 0 0 1.31 -1.75 0 0 -5.2 2.5 0c0.48,0 0.89,0.08 1.25,0.24 0.35,0.16 0.63,0.39 0.82,0.68 0.19,0.3 0.29,0.65 0.29,1.04 0,0.37 -0.09,0.7 -0.25,0.97 -0.17,0.28 -0.41,0.5 -0.73,0.67l1.09 1.6 -1.87 0 -0.88 -1.31zm0.88 -1.93c0,-0.19 -0.06,-0.34 -0.18,-0.44 -0.12,-0.11 -0.3,-0.17 -0.53,-0.17l-0.64 0 0 1.22 0.64 0c0.23,0 0.41,-0.05 0.53,-0.16 0.12,-0.1 0.18,-0.26 0.18,-0.45z"/>
   <path class="fil1" d="M24.25 0c1.6,0 2.89,1.29 2.89,2.87 0,1.6 -1.29,2.89 -2.89,2.89 -1.58,0 -2.87,-1.29 -2.87,-2.89 0,-0.94 0.47,-1.78 1.17,-2.31l1.98 1.61 0.05 2.72 0.83 -0.38 -0.03 -2.79 -1.96 -1.6c0.26,-0.07 0.55,-0.12 0.83,-0.12z"/>
  </g>
 </g>
</svg>
