<svg width="32" height="32" viewBox="0 0 32 32" fill="none" xmlns="http://www.w3.org/2000/svg">
<path fill-rule="evenodd" clip-rule="evenodd" d="M4.90813 22.6923C3.72117 20.7327 3.03787 18.4357 3.03787 15.9807C3.03787 8.81641 8.85429 2.99999 16.0186 2.99999C23.183 2.99999 28.9994 8.81641 28.9994 15.9807C28.9994 23.1451 23.183 28.9615 16.0186 28.9615C14.1245 28.9615 12.3248 28.5544 10.7017 27.8244L3.03787 28.9615L4.90813 22.6923Z" fill="white"/>
<path fill-rule="evenodd" clip-rule="evenodd" d="M3.82599 22.822L2.07999 28.676C1.98199 29.003 2.05899 29.358 2.28299 29.616C2.50699 29.875 2.847 30.001 3.185 29.951L10.565 28.856C12.24 29.567 14.084 29.962 16.019 29.962C23.735 29.962 30 23.697 30 15.981C30 8.265 23.735 2 16.019 2C8.30301 2 2.03799 8.265 2.03799 15.981C2.03799 18.465 2.68799 20.799 3.82599 22.822ZM5.867 22.978C5.947 22.708 5.91001 22.416 5.76401 22.174C4.66901 20.366 4.03799 18.246 4.03799 15.981C4.03799 9.368 9.40701 4 16.019 4C22.632 4 28 9.368 28 15.981C28 22.593 22.632 27.962 16.019 27.962C14.271 27.962 12.61 27.587 11.113 26.913C10.938 26.834 10.745 26.807 10.555 26.835L4.44601 27.742L5.867 22.978ZM10 14C8.896 14 8 14.896 8 16C8 17.104 8.896 18 10 18C11.104 18 12 17.104 12 16C12 14.896 11.104 14 10 14ZM16 14C14.896 14 14 14.896 14 16C14 17.104 14.896 18 16 18C17.104 18 18 17.104 18 16C18 14.896 17.104 14 16 14ZM22 14C20.896 14 20 14.896 20 16C20 17.104 20.896 18 22 18C23.104 18 24 17.104 24 16C24 14.896 23.104 14 22 14Z" fill="#002B5A"/>
</svg>
