<svg width="310" height="526" viewBox="0 0 310 526" fill="none" xmlns="http://www.w3.org/2000/svg">
<path d="M283.015 481.309H283.014V484.309C283.014 492.958 275.972 499.999 267.323 499.999H42.6782C34.0291 499.999 26.9883 492.958 26.9883 484.309V41.6899C26.9883 33.0408 34.0291 26 42.6782 26H267.324C275.973 26 283.015 33.041 283.015 41.6899V481.309ZM267.323 4H42.6782C21.8934 4 4.98828 20.9051 4.98828 41.6899V484.309C4.98828 505.094 21.8934 521.999 42.6782 521.999H267.324C288.108 521.999 305.015 505.094 305.015 484.309V41.6899C305.014 20.9051 288.109 4 267.323 4ZM181.135 70.0319C187.21 70.0319 192.135 65.1068 192.135 59.0319C192.135 52.9558 187.21 48.0319 181.135 48.0319H128.866C122.791 48.0319 117.866 52.9571 117.866 59.0319C117.866 65.1068 122.791 70.0319 128.866 70.0319H181.135ZM155 413.335C138.508 413.335 125.096 426.747 125.096 443.239C125.096 459.731 138.508 473.143 155 473.143C171.492 473.143 184.904 459.731 184.904 443.239C184.904 426.747 171.492 413.335 155 413.335ZM155 451.143C150.645 451.143 147.096 447.594 147.096 443.239C147.096 438.883 150.645 435.335 155 435.335C159.355 435.335 162.904 438.884 162.904 443.239C162.904 447.594 159.356 451.143 155 451.143Z" fill="#002B5A" stroke="#002B5A" stroke-width="6"/>
</svg>
