<svg width="40" height="39" xmlns="http://www.w3.org/2000/svg">
 <defs>
  <clipPath id="clip0_318_7888">
   <rect id="svg_1" x="9.6405" y="10" fill="white" height="20" width="19.9078"/>
  </clipPath>
 </defs>
 <g>
  <title>background</title>
  <rect fill="none" id="canvas_background" height="402" width="582" y="-1" x="-1"/>
 </g>
 <g>
  <title>Layer 1</title>
  <path fill="#784f99" id="svg_2" stroke-width="0.75" stroke="#784f99" d="m39.1273,19.5c0,10.5641 -8.524,19.125 -19.0352,19.125c-10.51114,0 -19.03509,-8.5609 -19.03509,-19.125c0,-10.56408 8.52395,-19.125 19.03509,-19.125c10.5112,0 19.0352,8.56092 19.0352,19.125z" opacity="1"/>
  <g id="svg_3" clip-path="url(#clip0_318_7888)">
   <path id="svg_4" fill="#ffffff" d="m28.8474,21.5773c0.5939,-5.0225 -0.2853,-8.1934 -1.8713,-9.6275l0.0008,-0.0009c-2.5598,-2.44912 -11.2048,-2.81162 -14.2673,0.11c-1.3753,1.4292 -1.8597,3.5267 -1.9128,6.1234c-0.0531,2.5975 -0.1161,7.4633 4.3972,8.7833l0.0041,0l-0.0041,2.0158c0,0 -0.0307,0.8167 0.4885,0.9809c0.5939,0.1933 0.8627,-0.1859 2.71,-2.4025c3.089,0.2691 5.4614,-0.3475 5.7309,-0.4375c0.6238,-0.21 4.1533,-0.6792 4.724,-5.545zm-10.1505,4.5641c0,0 -1.9551,2.4492 -2.5631,3.085c-0.1991,0.2067 -0.4173,0.1875 -0.4139,-0.2225c0,-0.2691 0.0149,-3.3466 0.0149,-3.3466c-3.8265,-1.1017 -3.6008,-5.245 -3.5594,-7.4125c0.0415,-2.1684 0.4363,-3.9442 1.6009,-5.14c2.6868,-2.5309 10.2659,-1.965 12.1969,-0.1417c2.3608,2.1025 1.5205,8.0425 1.5255,8.245c-0.4853,4.0617 -3.3454,4.3192 -3.8713,4.495c-0.2248,0.075 -2.311,0.6142 -4.9305,0.4383z"/>
   <path id="svg_5" fill="#ffffff" d="m19.7785,13.5806c-0.3194,0 -0.3194,0.5 0,0.5041c2.4777,0.0192 4.5182,1.7542 4.5406,4.9367c0,0.3358 0.4894,0.3317 0.4853,-0.0042l-0.0009,0c-0.0265,-3.4291 -2.2545,-5.4175 -5.025,-5.4366z"/>
   <path id="svg_6" fill="#ffffff" d="m23.0376,18.4942c-0.0074,0.3317 0.4812,0.3475 0.4853,0.0117c0.0406,-1.8909 -1.1198,-3.4484 -3.3006,-3.6125c-0.3193,-0.0234 -0.3525,0.4808 -0.034,0.5041c1.8913,0.1442 2.8875,1.4409 2.8493,3.0967z"/>
   <path id="svg_7" fill="#ffffff" d="m22.5151,20.6448c-0.4097,-0.2384 -0.827,-0.09 -0.9995,0.1441l-0.3608,0.4692c-0.1833,0.2383 -0.5259,0.2067 -0.5259,0.2067c-2.5001,-0.6642 -3.1687,-3.2925 -3.1687,-3.2925c0,0 -0.0307,-0.3559 0.1983,-0.5467l0.4512,-0.375c0.2256,-0.18 0.3683,-0.6133 0.1385,-1.0392c-0.6138,-1.1141 -1.026,-1.4983 -1.2359,-1.7933c-0.2206,-0.2775 -0.5524,-0.34 -0.8975,-0.1525l-0.0075,0c-0.7175,0.4217 -1.503,1.2108 -1.2517,2.0233c0.4289,0.8567 1.2169,3.5875 3.7286,5.6509c1.1803,0.9758 3.0484,1.9758 3.8414,2.2066l0.0074,0.0117c0.7814,0.2617 1.5412,-0.5583 1.9468,-1.3008l0,-0.0059c0.18,-0.3591 0.1203,-0.6991 -0.1426,-0.9216c-0.4662,-0.4567 -1.1696,-0.9609 -1.7221,-1.285z"/>
   <path id="svg_8" fill="#ffffff" d="m20.5641,16.7537c0.7972,0.0467 1.1837,0.465 1.2252,1.3242c0.0149,0.3358 0.5002,0.3125 0.4853,-0.0233c-0.0531,-1.1217 -0.6354,-1.7467 -1.6839,-1.805c-0.3194,-0.0192 -0.3492,0.485 -0.0266,0.5041z"/>
  </g>
 </g>
</svg>