<svg width="41" height="39" xmlns="http://www.w3.org/2000/svg">

 <g>
  <title>background</title>
  <rect fill="none" id="canvas_background" height="402" width="582" y="-1" x="-1"/>
 </g>
 <g>
  <title>Layer 1</title>
  <path fill="#00bf00" id="svg_1" stroke-width="0.75" stroke="#00bf00" d="m39.9015,19.5c0,10.5552 -8.7378,19.125 -19.5328,19.125c-10.79509,0 -19.532885,-8.5698 -19.532885,-19.125c0,-10.55517 8.737795,-19.125 19.532885,-19.125c10.795,0 19.5328,8.56983 19.5328,19.125z" opacity="1"/>
  <path id="svg_2" fill="#ffffff" d="m26.9706,13.3401c-1.7461,-1.7562 -4.0682,-2.7238 -6.5421,-2.7249c-5.0976,0 -9.2463,4.1679 -9.2484,9.2905c-0.0007,1.6375 0.4251,3.236 1.2345,4.645l-1.3121,4.8145l4.9028,-1.292c1.3509,0.7403 2.8717,1.1304 4.4195,1.1309l0.0038,0c5.0971,0 9.2463,-4.1682 9.2482,-9.291c0.001,-2.4827 -0.96,-4.8169 -2.7062,-6.573zm-6.5421,14.2949l-0.0032,0c-1.3792,-0.0006 -2.732,-0.373 -3.9123,-1.0764l-0.2806,-0.1675l-2.9093,0.7668l0.7765,-2.8497l-0.1828,-0.2922c-0.7695,-1.2295 -1.1758,-2.6506 -1.1752,-4.1098c0.0016,-4.2577 3.45,-7.7218 7.69,-7.7218c2.0532,0.0007 3.9832,0.805 5.4345,2.2647c1.4512,1.4597 2.25,3.3999 2.2493,5.4634c-0.0018,4.2581 -3.45,7.7225 -7.6869,7.7225zm4.2164,-5.7837c-0.231,-0.1163 -1.3672,-0.6777 -1.579,-0.7553c-0.2117,-0.0775 -0.3659,-0.1161 -0.5198,0.1162c-0.1542,0.2323 -0.5969,0.7553 -0.7318,0.9102c-0.1349,0.1549 -0.2695,0.1744 -0.5007,0.0581c-0.2311,-0.1161 -0.9756,-0.3614 -1.8584,-1.1523c-0.6868,-0.6156 -1.1506,-1.3758 -1.2855,-1.6081c-0.1346,-0.2326 -0.0011,-0.3461 0.1014,-0.4738c0.2502,-0.3121 0.5007,-0.6393 0.5777,-0.7941c0.0771,-0.155 0.0385,-0.2906 -0.0194,-0.4067c-0.0576,-0.1162 -0.5198,-1.2589 -0.7123,-1.7238c-0.1877,-0.4525 -0.3781,-0.3914 -0.52,-0.3985c-0.1347,-0.0068 -0.2888,-0.0082 -0.4429,-0.0082c-0.154,0 -0.4044,0.0581 -0.6163,0.2906c-0.2117,0.2324 -0.8086,0.794 -0.8086,1.9367c0,1.1427 0.828,2.2466 0.9435,2.4015c0.1155,0.155 1.6295,2.4999 3.9476,3.5054c0.5513,0.2394 0.9817,0.3821 1.3174,0.4891c0.5536,0.1767 1.0572,0.1517 1.4554,0.092c0.4441,-0.0667 1.3671,-0.5617 1.5599,-1.1039c0.1925,-0.5423 0.1925,-1.0071 0.1346,-1.104c-0.0576,-0.0968 -0.2118,-0.1549 -0.4428,-0.2711z" clip-rule="evenodd" fill-rule="evenodd"/>
 </g>
</svg>