<?xml version="1.0" standalone="no"?>
<!DOCTYPE svg PUBLIC "-//W3C//DTD SVG 20010904//EN"
 "http://www.w3.org/TR/2001/REC-SVG-20010904/DTD/svg10.dtd">
<svg version="1.0" xmlns="http://www.w3.org/2000/svg"
 width="300.000000pt" height="39.000000pt" viewBox="0 0 300.000000 39.000000"
 preserveAspectRatio="xMidYMid meet">
<metadata>
Created by potrace 1.10, written by Peter Selinger 2001-2011
</metadata>
<g transform="translate(0.000000,39.000000) scale(0.100000,-0.100000)"
fill="#000000" stroke="none">
<path d="M89 300 c-23 -23 -29 -35 -23 -52 11 -37 24 -47 81 -64 57 -17 73
-35 53 -59 -18 -21 -56 -19 -80 5 -27 27 -60 26 -60 0 0 -27 55 -60 100 -60
19 0 50 9 68 20 26 16 32 26 32 53 0 42 -20 61 -85 79 -34 9 -51 20 -53 32 -8
37 47 49 75 16 10 -11 25 -20 35 -20 32 0 32 23 -1 52 -45 40 -101 39 -142 -2z"/>
<path d="M344 317 c-2 -7 -3 -65 -2 -128 3 -110 4 -114 26 -117 21 -3 22 -1
22 85 l1 88 30 -58 c16 -32 35 -57 42 -55 7 2 23 25 37 51 14 26 27 47 30 47
3 0 5 -35 5 -77 0 -73 1 -78 23 -81 22 -3 22 -3 22 128 0 131 0 131 -22 128
-17 -2 -33 -22 -59 -72 l-37 -70 -28 55 c-16 30 -32 62 -36 72 -9 20 -46 23
-54 4z"/>
<path d="M697 207 c-26 -69 -47 -128 -47 -131 0 -3 11 -6 24 -6 18 0 27 8 35
30 9 28 13 30 63 30 50 0 54 -2 65 -30 8 -20 18 -30 32 -30 12 0 21 6 21 13 0
6 -20 64 -44 127 -41 108 -45 115 -73 118 -29 3 -30 1 -76 -121z m112 -32 c1
-5 -17 -10 -39 -10 -22 -1 -40 0 -40 2 0 1 6 20 14 40 8 21 17 47 21 58 6 16
11 11 25 -30 10 -27 19 -54 19 -60z"/>
<path d="M964 317 c-2 -7 -3 -65 -2 -128 l3 -114 25 0 c24 0 25 3 22 48 -4 46
-3 47 25 47 23 0 32 -8 53 -48 19 -36 31 -48 53 -50 34 -4 34 0 -2 57 l-28 47
23 21 c43 38 28 103 -27 122 -45 16 -138 14 -145 -2z m127 -37 c21 -12 25 -40
7 -58 -7 -7 -29 -12 -50 -12 -38 0 -38 0 -38 40 0 38 2 40 31 40 17 0 39 -5
50 -10z"/>
<path d="M1220 305 c0 -23 4 -25 40 -25 l40 0 0 -105 0 -105 25 0 25 0 0 104
0 105 38 3 c29 2 37 7 37 23 0 19 -8 20 -102 23 l-103 3 0 -26z"/>
<path d="M1580 323 c1 -5 20 -62 43 -128 41 -117 43 -120 72 -120 29 0 31 3
72 120 23 66 42 124 42 128 1 5 -11 7 -26 5 -25 -3 -30 -11 -58 -103 l-31
-100 -28 90 c-15 50 -29 96 -31 103 -5 13 -55 17 -55 5z"/>
<path d="M1880 205 c0 -102 3 -127 15 -131 36 -14 40 0 37 130 l-3 126 -25 0
-24 0 0 -125z"/>
<path d="M2062 320 c-28 -12 -46 -51 -38 -84 6 -23 23 -33 134 -71 18 -7 14
-33 -7 -45 -30 -16 -59 -12 -78 10 -10 11 -28 20 -40 20 -56 0 2 -69 65 -77
51 -7 110 20 118 54 11 43 -10 71 -68 88 -74 21 -86 30 -72 52 16 26 57 28 79
3 24 -26 55 -26 55 0 0 43 -90 73 -148 50z"/>
<path d="M2300 200 l0 -130 25 0 25 0 0 130 0 130 -25 0 -25 0 0 -130z"/>
<path d="M2484 318 c-33 -15 -49 -55 -49 -119 1 -69 18 -105 58 -119 66 -23
128 -1 146 51 14 42 14 111 -1 144 -22 48 -100 70 -154 43z m91 -42 c29 -21
28 -131 0 -152 -22 -16 -65 -11 -77 9 -4 7 -8 40 -8 74 0 49 4 64 18 72 24 14
45 13 67 -3z"/>
<path d="M2732 203 c3 -124 4 -128 26 -131 21 -3 22 -1 22 84 l0 88 54 -85
c36 -56 60 -85 75 -87 21 -3 21 -1 21 128 0 131 0 131 -22 128 -22 -3 -23 -7
-21 -85 1 -46 0 -83 -2 -83 -2 0 -27 38 -57 85 -41 66 -58 85 -76 85 -22 0
-23 -1 -20 -127z"/>
</g>
</svg>
